<?xml version="1.0" encoding="utf-8"?>
<!-- Generator: Adobe Illustrator 16.0.3, SVG Export Plug-In . SVG Version: 6.00 Build 0)  -->
<!DOCTYPE svg PUBLIC "-//W3C//DTD SVG 1.1//EN" "http://www.w3.org/Graphics/SVG/1.1/DTD/svg11.dtd">
<svg version="1.1" xmlns="http://www.w3.org/2000/svg" viewBox="0 0 297 149">
	<g id="logo">
		<g>
			<path d="M76.786,102.312c-0.001,6.52-5.277,11.797-11.794,11.794c-6.508,0-11.8-5.274-11.797-11.797
				c-0.003-6.517,5.286-11.8,11.794-11.8C71.505,90.506,76.785,95.786,76.786,102.312z"/>
			<path d="M105.557,4.402l0.003,97.906c-0.003,16.339-9.675,30.436-23.6,36.848c-1.662,0.78-3.387,1.437-5.175,1.97
				c-3.727,1.145-7.689,1.752-11.794,1.752c-4.116-0.001-8.079-0.607-11.803-1.748c-16.653-5.06-28.757-20.531-28.757-38.824
				l-16.781,0.003l40.374-40.374l-0.003,40.374c0,4.795,1.978,9.112,5.171,12.194c3.053,2.955,7.213,4.781,11.796,4.783
				c4.578-0.002,8.743-1.816,11.8-4.774c3.189-3.091,5.175-7.411,5.176-12.2l-0.001-74.315L105.557,4.402z"/>
			<path d="M76.785,33.174v56.923c-3.053-2.955-7.216-4.768-11.796-4.768c-4.586,0-8.745,1.826-11.797,4.784V56.768
				L76.785,33.174z"/>
		</g>
		<path d="M118.232,61.511h8.647v39.202h-8.647V61.511z M155.322,60.449c-5.156,0-9.555,2.649-12.208,6.978
			l-0.15-0.154v-5.761h-8.19v39.202h8.644V77.584c0-5.762,3.714-10.312,9.477-10.312c5.156,0,7.432,2.655,7.66,8.798v24.643h8.645
			V73.792C169.199,64.919,163.893,60.449,155.322,60.449z M177.031,103.67c0,3.864-0.377,5.761-3.486,5.761
			c-0.836,0-1.82-0.074-2.957-0.303v6.828c1.137,0.223,2.121,0.303,3.865,0.303c8.113,0,11.225-4.402,11.225-12.213V61.511h-8.646
			V103.67z M231.336,81.072c0,12.059-7.281,20.701-19.793,20.701s-19.793-8.643-19.793-20.701c0-11.905,7.281-20.624,19.793-20.624
			S231.336,69.167,231.336,81.072z M222.691,81.072c0-6.75-3.414-13.8-11.148-13.8s-11.148,7.051-11.148,13.8
			c0,6.822,3.414,13.879,11.148,13.879S222.691,87.895,222.691,81.072z M237.271,100.713h8.646V61.511h-8.646V100.713z
			 M274.361,60.449c-5.156,0-9.555,2.649-12.207,6.978L262,67.272v-5.761h-8.188v39.202h8.645V77.584
			c0-5.762,3.715-10.312,9.479-10.312c5.154,0,7.43,2.655,7.658,8.798v24.643h8.645V73.792
			C288.238,64.919,282.932,60.449,274.361,60.449z M241.596,58.042c2.232,0,4.043-1.81,4.043-4.042s-1.811-4.042-4.043-4.042
			s-4.043,1.81-4.043,4.042S239.363,58.042,241.596,58.042z M181.176,58.042c2.232,0,4.043-1.81,4.043-4.042
			s-1.811-4.042-4.043-4.042s-4.043,1.81-4.043,4.042S178.943,58.042,181.176,58.042z M122.555,58.042
			c2.233,0,4.043-1.81,4.043-4.042s-1.81-4.042-4.043-4.042c-2.232,0-4.042,1.81-4.042,4.042S120.323,58.042,122.555,58.042z"/>
	</g>
</svg>
